# xmcd
#
# Track frame offsets: 
#        150
#        35482
#        57919
#        80711
#        101595
#        120807
#        143610
#        163575
#        191948
#        218038
#        249916
#        277911
#        301158
#
# Disc length: 4382 seconds
#
# Revision: 1
# Processed by: cddbd v1.5.2PL0 Copyright (c) Steve Scherf et al.
# Submitted via: ExactAudioCopyFreeDBPlugin 1.0
#
DISCID=a9111c0d
DTITLE=Deodato - Happy Hour and Motion
DYEAR=1983
DGENRE=Jazz+Funk
TTITLE0=Keep On Movin'
TTITLE1=Happy Hour
TTITLE2=Just This One Night
TTITLE3=Tears Of A Clown
TTITLE4=Sweet Magic
TTITLE5=Keep It In The Family
TTITLE6=I Never Get Enough
TTITLE7=S.O.S., Fire In The Sky
TTITLE8=Never Knew Love
TTITLE9=Bus Stop
TTITLE10=Motion
TTITLE11=Are You For Real
TTITLE12=Make You Feel Good
EXTD=
EXTT0=
EXTT1=
EXTT2=
EXTT3=
EXTT4=
EXTT5=
EXTT6=
EXTT7=
EXTT8=
EXTT9=
EXTT10=
EXTT11=
EXTT12=
PLAYORDER=
